<svg class="startPage__logo" version="1.0" xmlns="http://www.w3.org/2000/svg"
  viewBox="0 0 368.000000 137.000000" fill="#ffffff" preserveAspectRatio="xMidYMid meet">
<g transform="translate(0.000000,137.000000) scale(0.100000,-0.100000)" stroke="none">
<path fill="#ffffff" d="M2058 1310 c-137 -41 -178 -183 -79 -273 28 -25 62 -42 113 -57 124
-36 138 -41 153 -57 39 -38 3 -94 -62 -95 -61 -1 -87 19 -106 82 -4 12 -21 14
-91 12 l-87 -4 7 -31 c10 -48 40 -103 70 -126 91 -71 312 -66 397 9 l34 29 16
-53 c9 -28 33 -71 52 -93 39 -46 143 -103 187 -103 34 0 34 -1 3 -48 -35 -53
-59 -155 -51 -222 18 -166 92 -248 245 -270 144 -20 255 20 319 114 l32 48 0
-81 0 -81 235 0 235 0 0 75 0 75 -145 0 -145 0 0 225 0 225 -90 0 -90 0 0 -82
0 -82 -29 47 c-36 56 -88 92 -159 110 l-53 13 44 32 c53 38 118 120 148 187
30 69 37 186 15 253 -62 186 -296 255 -508 150 -75 -37 -184 -143 -212 -206
-10 -23 -22 -42 -26 -42 -4 0 -15 11 -24 25 -21 32 -94 68 -181 89 -38 10 -78
19 -87 22 -20 6 -48 31 -48 44 0 20 34 40 66 40 46 0 73 -15 85 -47 9 -24 11
-25 88 -22 44 2 82 7 85 10 3 3 1 22 -5 42 -14 52 -67 102 -122 116 -52 13
-188 13 -229 1z m959 -67 c65 -30 127 -99 149 -165 55 -167 -59 -383 -250
-474 -293 -139 -565 57 -480 347 28 95 68 149 166 226 134 103 286 127 415 66z
m-42 -779 c45 -21 66 -69 67 -149 1 -115 -29 -164 -105 -172 -55 -6 -101 16
-123 59 -24 46 -24 174 0 214 36 61 97 79 161 48z"/>
<path d="M2824 1111 c-69 -42 -92 -103 -54 -141 24 -24 66 -26 120 -4 31 13
43 14 55 4 30 -25 -18 -70 -55 -50 -16 8 -26 7 -45 -7 -32 -24 -31 -38 4 -53
42 -17 86 -4 132 39 46 44 53 92 19 129 -25 26 -59 28 -124 6 -31 -11 -51 -13
-57 -7 -16 16 20 45 46 39 15 -4 32 2 50 16 26 20 27 22 9 35 -25 18 -64 16
-100 -6z"/>
<path d="M2643 983 c-13 -8 -23 -19 -23 -23 0 -5 23 -41 50 -81 28 -40 50 -78
50 -85 0 -17 -22 -23 -43 -12 -14 7 -25 4 -43 -13 -31 -29 -30 -34 11 -53 30
-15 38 -15 68 -2 94 39 101 96 25 208 -29 43 -57 77 -63 77 -5 0 -20 -7 -32
-16z"/>
<path d="M40 1016 l0 -296 95 0 95 0 0 120 c0 111 1 120 19 120 32 0 59 -32
114 -135 l53 -100 102 -3 c56 -1 102 0 102 3 0 13 -85 172 -107 202 -14 18
-33 35 -44 38 -28 9 -23 18 24 40 80 38 112 163 60 233 -49 66 -54 67 -294 70
l-219 3 0 -295z m334 161 c22 -16 24 -63 3 -84 -9 -9 -41 -17 -81 -20 l-66 -6
0 62 0 61 63 0 c37 0 71 -6 81 -13z"/>
<path d="M199 610 c-97 -17 -149 -57 -169 -131 -20 -74 16 -142 97 -183 17 -8
66 -25 110 -37 100 -27 123 -41 123 -79 0 -63 -98 -83 -151 -31 -16 16 -29 39
-29 52 0 20 -3 21 -52 15 -29 -3 -70 -6 -91 -6 -38 0 -39 0 -32 -33 11 -50 51
-113 87 -135 44 -27 157 -46 225 -38 74 9 148 42 178 79 l24 31 44 -41 c63
-59 164 -82 274 -64 82 13 135 48 173 113 43 77 41 83 -39 107 -38 12 -73 21
-78 21 -5 0 -15 -16 -22 -35 -17 -49 -55 -75 -106 -75 -76 0 -115 58 -115 172
0 103 38 157 115 165 43 5 48 4 85 -36 l40 -42 75 16 c41 10 75 19 75 22 0 14
-37 73 -64 101 -42 45 -77 62 -151 73 -114 16 -217 -13 -283 -80 -23 -24 -36
-32 -39 -23 -11 31 -57 72 -96 86 -53 19 -148 26 -208 16z m119 -122 c8 -7 18
-23 23 -37 9 -23 12 -24 74 -18 71 7 69 8 59 -54 l-6 -36 -38 18 c-20 10 -76
28 -124 40 -48 12 -94 28 -102 37 -48 47 59 95 114 50z"/>
<path d="M2045 610 c-84 -12 -166 -67 -203 -135 -9 -16 -11 -4 -12 58 l0 77
-90 0 -90 0 0 -105 0 -105 -105 0 -105 0 0 105 0 105 -90 0 -90 0 0 -300 0
-300 90 0 90 0 0 120 0 120 105 0 105 0 0 -120 0 -120 90 0 90 0 0 78 0 77 19
-30 c52 -84 134 -126 254 -128 115 -3 170 15 233 77 61 60 84 121 84 226 0
127 -51 224 -141 270 -32 17 -146 42 -174 39 -5 -1 -33 -5 -60 -9z m136 -153
c39 -26 58 -71 58 -142 2 -112 -43 -175 -123 -175 -81 0 -126 61 -126 170 0
76 20 124 62 150 43 26 87 25 129 -3z"/>
</g>
</svg>
